# xmcd CD database file
#
# Track frame offsets:
#	150
#	13301
#	22919
#	35444
#	44365
#	57407
#	67156
#	79062
#	89894
#	104472
#	122832
#	141755
#	152311
#	170803
#	184475
#	205371
#
# Disc length: 3034 seconds
#
# Revision: 0
# Processed by: cddbd v1.5.2PL0 Copyright (c) Steve Scherf et al.
# Submitted via: CDex 1.51
#
DISCID=eb0bd810
DTITLE=Magic Sam - Great Blues Masters Vol.9
DYEAR=1900
DGENRE=Blues
TTITLE0=All Your Love
TTITLE1=Love Me With A Feeling
TTITLE2=Easy Baby
TTITLE3=21 Days In Jail
TTITLE4=My Love Is Your Love
TTITLE5=Every Night About This Time
TTITLE6=She Belongs To Me
TTITLE7=Out Of Bad Luck
TTITLE8=That's All I Need
TTITLE9=I Found A New Love
TTITLE10=Sweet Home Chicago
TTITLE11=Every Night And Every Day
TTITLE12=You Belong To Me
TTITLE13=I Just Want A Little Bit
TTITLE14=I Need You So Bad
TTITLE15=I Feel So Good(I Wanna Boogie)
EXTD=
EXTT0=
EXTT1=
EXTT2=
EXTT3=
EXTT4=
EXTT5=
EXTT6=
EXTT7=
EXTT8=
EXTT9=
EXTT10=
EXTT11=
EXTT12=
EXTT13=
EXTT14=
EXTT15=
PLAYORDER=
